<mxfile host="Electron" agent="Mozilla/5.0 (Windows NT 10.0; Win64; x64) AppleWebKit/537.36 (KHTML, like Gecko) draw.io/24.7.5 Chrome/126.0.6478.183 Electron/31.3.0 Safari/537.36" version="24.7.5" pages="2">
  <diagram name="only-light" id="h1wnxjE1MsTA4UH1_zHc">
    <mxGraphModel dx="2868" dy="1928" grid="1" gridSize="10" guides="1" tooltips="1" connect="1" arrows="1" fold="1" page="1" pageScale="1" pageWidth="1920" pageHeight="1200" math="0" shadow="0">
      <root>
        <mxCell id="0" />
        <mxCell id="1" parent="0" />
        <mxCell id="Y2T2K1H34ytZNLQVcZU9-13" style="edgeStyle=orthogonalEdgeStyle;rounded=0;orthogonalLoop=1;jettySize=auto;html=1;strokeWidth=3;sketch=1;curveFitting=1;jiggle=2;" parent="1" source="Y2T2K1H34ytZNLQVcZU9-1" target="Y2T2K1H34ytZNLQVcZU9-9" edge="1">
          <mxGeometry relative="1" as="geometry" />
        </mxCell>
        <mxCell id="Y2T2K1H34ytZNLQVcZU9-21" value="&lt;font style=&quot;font-size: 26px;&quot;&gt;publish&lt;/font&gt;&lt;div style=&quot;font-size: 26px;&quot;&gt;&lt;font style=&quot;font-size: 26px;&quot;&gt;&lt;b&gt;commit event&lt;/b&gt;&lt;/font&gt;&lt;/div&gt;" style="edgeLabel;html=1;align=center;verticalAlign=middle;resizable=0;points=[];fontSize=26;" parent="Y2T2K1H34ytZNLQVcZU9-13" vertex="1" connectable="0">
          <mxGeometry x="0.0313" y="5" relative="1" as="geometry">
            <mxPoint as="offset" />
          </mxGeometry>
        </mxCell>
        <mxCell id="Y2T2K1H34ytZNLQVcZU9-1" value="&lt;font style=&quot;font-size: 20px;&quot;&gt;&lt;i&gt;git repository&lt;/i&gt;&lt;/font&gt;" style="verticalLabelPosition=bottom;html=1;verticalAlign=top;align=center;strokeColor=none;fillColor=#00BEF2;shape=mxgraph.azure.git_repository;" parent="1" vertex="1">
          <mxGeometry x="80" y="80" width="160" height="160" as="geometry" />
        </mxCell>
        <mxCell id="Y2T2K1H34ytZNLQVcZU9-2" value="" style="sketch=0;pointerEvents=1;shadow=0;dashed=0;html=1;strokeColor=none;fillColor=#9933FF;labelPosition=center;verticalLabelPosition=bottom;verticalAlign=top;align=center;outlineConnect=0;shape=mxgraph.veeam2.microsoft_teams;" parent="1" vertex="1">
          <mxGeometry x="1700" y="530" width="140" height="140" as="geometry" />
        </mxCell>
        <mxCell id="Y2T2K1H34ytZNLQVcZU9-20" style="edgeStyle=orthogonalEdgeStyle;rounded=0;orthogonalLoop=1;jettySize=auto;html=1;strokeWidth=3;sketch=1;curveFitting=1;jiggle=2;" parent="1" source="Y2T2K1H34ytZNLQVcZU9-3" target="Y2T2K1H34ytZNLQVcZU9-2" edge="1">
          <mxGeometry relative="1" as="geometry" />
        </mxCell>
        <mxCell id="Y2T2K1H34ytZNLQVcZU9-24" value="&lt;font style=&quot;font-size: 26px;&quot;&gt;extract useful info from commit metadata&lt;/font&gt;&lt;div style=&quot;font-size: 26px;&quot;&gt;&lt;font style=&quot;font-size: 26px;&quot;&gt;(e.g. repo name, commit hash and message, author)&lt;/font&gt;&lt;/div&gt;&lt;div style=&quot;font-size: 26px;&quot;&gt;&lt;font style=&quot;font-size: 26px;&quot;&gt;and &lt;b&gt;publish Markdown message to Microsoft Teams&lt;/b&gt;&lt;/font&gt;&lt;/div&gt;&lt;div style=&quot;font-size: 26px;&quot;&gt;&lt;font style=&quot;font-size: 26px;&quot;&gt;through dedicated&amp;nbsp;&lt;/font&gt;channel webhook&lt;/div&gt;" style="edgeLabel;html=1;align=center;verticalAlign=middle;resizable=0;points=[];fontSize=26;" parent="Y2T2K1H34ytZNLQVcZU9-20" vertex="1" connectable="0">
          <mxGeometry x="0.0423" y="-3" relative="1" as="geometry">
            <mxPoint x="-10" y="97" as="offset" />
          </mxGeometry>
        </mxCell>
        <mxCell id="Y2T2K1H34ytZNLQVcZU9-3" value="&lt;font style=&quot;font-size: 20px;&quot;&gt;&lt;i&gt;worker&lt;/i&gt;&lt;/font&gt;" style="outlineConnect=0;dashed=0;verticalLabelPosition=bottom;verticalAlign=top;align=center;html=1;shape=mxgraph.aws3.worker;fillColor=#D9A741;gradientColor=none;" parent="1" vertex="1">
          <mxGeometry x="888" y="525" width="143.75" height="150" as="geometry" />
        </mxCell>
        <mxCell id="Y2T2K1H34ytZNLQVcZU9-14" style="edgeStyle=orthogonalEdgeStyle;rounded=0;orthogonalLoop=1;jettySize=auto;html=1;strokeWidth=3;sketch=1;curveFitting=1;jiggle=2;" parent="1" source="Y2T2K1H34ytZNLQVcZU9-4" target="Y2T2K1H34ytZNLQVcZU9-11" edge="1">
          <mxGeometry relative="1" as="geometry" />
        </mxCell>
        <mxCell id="Y2T2K1H34ytZNLQVcZU9-4" value="" style="verticalLabelPosition=bottom;html=1;verticalAlign=top;align=center;strokeColor=none;fillColor=#00BEF2;shape=mxgraph.azure.git_repository;opacity=20;" parent="1" vertex="1">
          <mxGeometry x="80" y="320" width="160" height="160" as="geometry" />
        </mxCell>
        <mxCell id="Y2T2K1H34ytZNLQVcZU9-15" style="edgeStyle=orthogonalEdgeStyle;rounded=0;orthogonalLoop=1;jettySize=auto;html=1;strokeWidth=3;sketch=1;curveFitting=1;jiggle=2;" parent="1" source="Y2T2K1H34ytZNLQVcZU9-5" target="Y2T2K1H34ytZNLQVcZU9-10" edge="1">
          <mxGeometry relative="1" as="geometry" />
        </mxCell>
        <mxCell id="Y2T2K1H34ytZNLQVcZU9-5" value="" style="verticalLabelPosition=bottom;html=1;verticalAlign=top;align=center;strokeColor=none;fillColor=#00BEF2;shape=mxgraph.azure.git_repository;" parent="1" vertex="1">
          <mxGeometry x="80" y="960" width="160" height="160" as="geometry" />
        </mxCell>
        <mxCell id="Y2T2K1H34ytZNLQVcZU9-8" value="" style="endArrow=none;dashed=1;html=1;dashPattern=1 3;strokeWidth=3;rounded=0;sketch=1;curveFitting=1;jiggle=2;" parent="1" edge="1">
          <mxGeometry width="50" height="50" relative="1" as="geometry">
            <mxPoint x="160" y="910" as="sourcePoint" />
            <mxPoint x="160" y="520" as="targetPoint" />
          </mxGeometry>
        </mxCell>
        <mxCell id="Y2T2K1H34ytZNLQVcZU9-9" value="&lt;span style=&quot;font-size: 20px;&quot;&gt;&lt;i&gt;topic&lt;/i&gt;&lt;/span&gt;" style="sketch=0;outlineConnect=0;fontColor=#232F3E;gradientColor=none;fillColor=#FF3399;strokeColor=none;dashed=0;verticalLabelPosition=bottom;verticalAlign=top;align=center;html=1;fontSize=12;fontStyle=0;aspect=fixed;pointerEvents=1;shape=mxgraph.azure.notification_topic;" parent="1" vertex="1">
          <mxGeometry x="477" y="120" width="91.76" height="80" as="geometry" />
        </mxCell>
        <mxCell id="Y2T2K1H34ytZNLQVcZU9-10" value="" style="sketch=0;outlineConnect=0;fontColor=#232F3E;gradientColor=none;fillColor=#FF3399;strokeColor=none;dashed=0;verticalLabelPosition=bottom;verticalAlign=top;align=center;html=1;fontSize=12;fontStyle=0;aspect=fixed;pointerEvents=1;shape=mxgraph.azure.notification_topic;" parent="1" vertex="1">
          <mxGeometry x="477" y="1000" width="91.76" height="80" as="geometry" />
        </mxCell>
        <mxCell id="Y2T2K1H34ytZNLQVcZU9-11" value="" style="sketch=0;outlineConnect=0;fontColor=#232F3E;gradientColor=none;fillColor=#FF3399;strokeColor=none;dashed=0;verticalLabelPosition=bottom;verticalAlign=top;align=center;html=1;fontSize=12;fontStyle=0;aspect=fixed;pointerEvents=1;shape=mxgraph.azure.notification_topic;opacity=20;" parent="1" vertex="1">
          <mxGeometry x="477" y="360" width="91.76" height="80" as="geometry" />
        </mxCell>
        <mxCell id="Y2T2K1H34ytZNLQVcZU9-12" value="" style="endArrow=none;dashed=1;html=1;dashPattern=1 3;strokeWidth=3;rounded=0;sketch=1;curveFitting=1;jiggle=2;" parent="1" edge="1">
          <mxGeometry width="50" height="50" relative="1" as="geometry">
            <mxPoint x="517" y="910" as="sourcePoint" />
            <mxPoint x="517" y="520" as="targetPoint" />
          </mxGeometry>
        </mxCell>
        <mxCell id="Y2T2K1H34ytZNLQVcZU9-16" style="edgeStyle=orthogonalEdgeStyle;rounded=0;orthogonalLoop=1;jettySize=auto;html=1;entryX=0.5;entryY=0;entryDx=0;entryDy=0;entryPerimeter=0;strokeWidth=3;sketch=1;curveFitting=1;jiggle=2;" parent="1" source="Y2T2K1H34ytZNLQVcZU9-9" target="Y2T2K1H34ytZNLQVcZU9-3" edge="1">
          <mxGeometry relative="1" as="geometry" />
        </mxCell>
        <mxCell id="Y2T2K1H34ytZNLQVcZU9-22" value="&lt;font style=&quot;font-size: 26px;&quot;&gt;forward&amp;nbsp;&lt;br&gt;&lt;/font&gt;&lt;div&gt;&lt;font style=&quot;font-size: 26px;&quot;&gt;&lt;b&gt;commit metadata&lt;/b&gt;&lt;/font&gt;&lt;/div&gt;&lt;div&gt;&lt;font style=&quot;font-size: 26px;&quot;&gt;to&amp;nbsp;&lt;/font&gt;the subscriber&lt;/div&gt;" style="edgeLabel;html=1;align=center;verticalAlign=middle;resizable=0;points=[];fontSize=26;" parent="Y2T2K1H34ytZNLQVcZU9-16" vertex="1" connectable="0">
          <mxGeometry x="0.4128" y="3" relative="1" as="geometry">
            <mxPoint y="1" as="offset" />
          </mxGeometry>
        </mxCell>
        <mxCell id="Y2T2K1H34ytZNLQVcZU9-17" style="edgeStyle=orthogonalEdgeStyle;rounded=0;orthogonalLoop=1;jettySize=auto;html=1;entryX=0;entryY=0.5;entryDx=0;entryDy=0;entryPerimeter=0;strokeWidth=3;sketch=1;curveFitting=1;jiggle=2;" parent="1" source="Y2T2K1H34ytZNLQVcZU9-11" target="Y2T2K1H34ytZNLQVcZU9-3" edge="1">
          <mxGeometry relative="1" as="geometry">
            <Array as="points">
              <mxPoint x="680" y="400" />
              <mxPoint x="680" y="600" />
            </Array>
          </mxGeometry>
        </mxCell>
        <mxCell id="Y2T2K1H34ytZNLQVcZU9-18" style="edgeStyle=orthogonalEdgeStyle;rounded=0;orthogonalLoop=1;jettySize=auto;html=1;strokeWidth=3;sketch=1;curveFitting=1;jiggle=2;" parent="1" source="Y2T2K1H34ytZNLQVcZU9-10" edge="1">
          <mxGeometry relative="1" as="geometry">
            <mxPoint x="960" y="730" as="targetPoint" />
          </mxGeometry>
        </mxCell>
        <mxCell id="Y2T2K1H34ytZNLQVcZU9-19" value="" style="endArrow=classic;html=1;rounded=0;entryX=0;entryY=0.5;entryDx=0;entryDy=0;entryPerimeter=0;dashed=1;dashPattern=1 4;strokeWidth=3;sketch=1;curveFitting=1;jiggle=2;" parent="1" target="Y2T2K1H34ytZNLQVcZU9-3" edge="1">
          <mxGeometry width="50" height="50" relative="1" as="geometry">
            <mxPoint x="520" y="800" as="sourcePoint" />
            <mxPoint x="930" y="720" as="targetPoint" />
            <Array as="points">
              <mxPoint x="680" y="800" />
              <mxPoint x="680" y="600" />
            </Array>
          </mxGeometry>
        </mxCell>
        <mxCell id="Y2T2K1H34ytZNLQVcZU9-23" value="" style="shape=image;verticalLabelPosition=bottom;labelBackgroundColor=default;verticalAlign=top;aspect=fixed;imageAspect=0;image=https://raw.githubusercontent.com/caronc/apprise/master/apprise/assets/themes/default/apprise-logo.png;" parent="1" vertex="1">
          <mxGeometry x="1200" y="460" width="316.88" height="130" as="geometry" />
        </mxCell>
      </root>
    </mxGraphModel>
  </diagram>
  <diagram name="only-dark" id="D6BWjK_OX_-ERGI1zWQl">
    <mxGraphModel dx="2607" dy="1753" grid="1" gridSize="10" guides="1" tooltips="1" connect="1" arrows="1" fold="1" page="1" pageScale="1" pageWidth="1920" pageHeight="1200" background="#1E2129" math="0" shadow="0">
      <root>
        <mxCell id="Lj7cZKcXqTJOpleY3WrA-0" />
        <mxCell id="Lj7cZKcXqTJOpleY3WrA-1" parent="Lj7cZKcXqTJOpleY3WrA-0" />
        <mxCell id="Lj7cZKcXqTJOpleY3WrA-2" style="edgeStyle=orthogonalEdgeStyle;rounded=0;orthogonalLoop=1;jettySize=auto;html=1;strokeWidth=3;sketch=1;curveFitting=1;jiggle=2;strokeColor=#FFFFFF;" edge="1" parent="Lj7cZKcXqTJOpleY3WrA-1" source="Lj7cZKcXqTJOpleY3WrA-4" target="Lj7cZKcXqTJOpleY3WrA-14">
          <mxGeometry relative="1" as="geometry" />
        </mxCell>
        <mxCell id="Lj7cZKcXqTJOpleY3WrA-3" value="&lt;font style=&quot;font-size: 26px;&quot;&gt;publish&lt;/font&gt;&lt;div style=&quot;font-size: 26px;&quot;&gt;&lt;font style=&quot;font-size: 26px;&quot;&gt;&lt;b&gt;commit event&lt;/b&gt;&lt;/font&gt;&lt;/div&gt;" style="edgeLabel;html=1;align=center;verticalAlign=middle;resizable=0;points=[];fontSize=26;labelBackgroundColor=#1E2129;fontColor=#FFFFFF;" vertex="1" connectable="0" parent="Lj7cZKcXqTJOpleY3WrA-2">
          <mxGeometry x="0.0313" y="5" relative="1" as="geometry">
            <mxPoint as="offset" />
          </mxGeometry>
        </mxCell>
        <mxCell id="Lj7cZKcXqTJOpleY3WrA-4" value="&lt;font color=&quot;#ffffff&quot; style=&quot;font-size: 20px;&quot;&gt;&lt;i&gt;git repository&lt;/i&gt;&lt;/font&gt;" style="verticalLabelPosition=bottom;html=1;verticalAlign=top;align=center;strokeColor=none;fillColor=#00BEF2;shape=mxgraph.azure.git_repository;" vertex="1" parent="Lj7cZKcXqTJOpleY3WrA-1">
          <mxGeometry x="80" y="80" width="160" height="160" as="geometry" />
        </mxCell>
        <mxCell id="Lj7cZKcXqTJOpleY3WrA-5" value="" style="sketch=0;pointerEvents=1;shadow=0;dashed=0;html=1;strokeColor=none;fillColor=#9933FF;labelPosition=center;verticalLabelPosition=bottom;verticalAlign=top;align=center;outlineConnect=0;shape=mxgraph.veeam2.microsoft_teams;" vertex="1" parent="Lj7cZKcXqTJOpleY3WrA-1">
          <mxGeometry x="1700" y="530" width="140" height="140" as="geometry" />
        </mxCell>
        <mxCell id="Lj7cZKcXqTJOpleY3WrA-6" style="edgeStyle=orthogonalEdgeStyle;rounded=0;orthogonalLoop=1;jettySize=auto;html=1;strokeWidth=3;sketch=1;curveFitting=1;jiggle=2;strokeColor=#FFFFFF;" edge="1" parent="Lj7cZKcXqTJOpleY3WrA-1" source="Lj7cZKcXqTJOpleY3WrA-8" target="Lj7cZKcXqTJOpleY3WrA-5">
          <mxGeometry relative="1" as="geometry" />
        </mxCell>
        <mxCell id="Lj7cZKcXqTJOpleY3WrA-7" value="&lt;font style=&quot;font-size: 26px;&quot;&gt;extract useful info from commit metadata&lt;/font&gt;&lt;div style=&quot;font-size: 26px;&quot;&gt;&lt;font style=&quot;font-size: 26px;&quot;&gt;(e.g. repo name, commit hash and message, author)&lt;/font&gt;&lt;/div&gt;&lt;div style=&quot;font-size: 26px;&quot;&gt;&lt;font style=&quot;font-size: 26px;&quot;&gt;and &lt;b&gt;publish Markdown message to Microsoft Teams&lt;/b&gt;&lt;/font&gt;&lt;/div&gt;&lt;div style=&quot;font-size: 26px;&quot;&gt;&lt;font style=&quot;font-size: 26px;&quot;&gt;through dedicated&amp;nbsp;&lt;/font&gt;channel webhook&lt;/div&gt;" style="edgeLabel;html=1;align=center;verticalAlign=middle;resizable=0;points=[];fontSize=26;labelBackgroundColor=#1E2129;fontColor=#FFFFFF;" vertex="1" connectable="0" parent="Lj7cZKcXqTJOpleY3WrA-6">
          <mxGeometry x="0.0423" y="-3" relative="1" as="geometry">
            <mxPoint x="-10" y="97" as="offset" />
          </mxGeometry>
        </mxCell>
        <mxCell id="Lj7cZKcXqTJOpleY3WrA-8" value="&lt;font color=&quot;#ffffff&quot; style=&quot;font-size: 20px;&quot;&gt;&lt;i&gt;worker&lt;/i&gt;&lt;/font&gt;" style="outlineConnect=0;dashed=0;verticalLabelPosition=bottom;verticalAlign=top;align=center;html=1;shape=mxgraph.aws3.worker;fillColor=#D9A741;gradientColor=none;" vertex="1" parent="Lj7cZKcXqTJOpleY3WrA-1">
          <mxGeometry x="888" y="525" width="143.75" height="150" as="geometry" />
        </mxCell>
        <mxCell id="Lj7cZKcXqTJOpleY3WrA-9" style="edgeStyle=orthogonalEdgeStyle;rounded=0;orthogonalLoop=1;jettySize=auto;html=1;strokeWidth=3;sketch=1;curveFitting=1;jiggle=2;strokeColor=#FFFFFF;" edge="1" parent="Lj7cZKcXqTJOpleY3WrA-1" source="Lj7cZKcXqTJOpleY3WrA-10" target="Lj7cZKcXqTJOpleY3WrA-16">
          <mxGeometry relative="1" as="geometry" />
        </mxCell>
        <mxCell id="Lj7cZKcXqTJOpleY3WrA-10" value="" style="verticalLabelPosition=bottom;html=1;verticalAlign=top;align=center;strokeColor=none;fillColor=#00BEF2;shape=mxgraph.azure.git_repository;opacity=20;" vertex="1" parent="Lj7cZKcXqTJOpleY3WrA-1">
          <mxGeometry x="80" y="320" width="160" height="160" as="geometry" />
        </mxCell>
        <mxCell id="Lj7cZKcXqTJOpleY3WrA-11" style="edgeStyle=orthogonalEdgeStyle;rounded=0;orthogonalLoop=1;jettySize=auto;html=1;strokeWidth=3;sketch=1;curveFitting=1;jiggle=2;strokeColor=#FFFFFF;" edge="1" parent="Lj7cZKcXqTJOpleY3WrA-1" source="Lj7cZKcXqTJOpleY3WrA-12" target="Lj7cZKcXqTJOpleY3WrA-15">
          <mxGeometry relative="1" as="geometry" />
        </mxCell>
        <mxCell id="Lj7cZKcXqTJOpleY3WrA-12" value="" style="verticalLabelPosition=bottom;html=1;verticalAlign=top;align=center;strokeColor=none;fillColor=#00BEF2;shape=mxgraph.azure.git_repository;" vertex="1" parent="Lj7cZKcXqTJOpleY3WrA-1">
          <mxGeometry x="80" y="960" width="160" height="160" as="geometry" />
        </mxCell>
        <mxCell id="Lj7cZKcXqTJOpleY3WrA-13" value="" style="endArrow=none;dashed=1;html=1;dashPattern=1 3;strokeWidth=3;rounded=0;sketch=1;curveFitting=1;jiggle=2;strokeColor=#FFFFFF;" edge="1" parent="Lj7cZKcXqTJOpleY3WrA-1">
          <mxGeometry width="50" height="50" relative="1" as="geometry">
            <mxPoint x="160" y="910" as="sourcePoint" />
            <mxPoint x="160" y="520" as="targetPoint" />
          </mxGeometry>
        </mxCell>
        <mxCell id="Lj7cZKcXqTJOpleY3WrA-14" value="&lt;span style=&quot;font-size: 20px;&quot;&gt;&lt;i&gt;&lt;font color=&quot;#ffffff&quot;&gt;topic&lt;/font&gt;&lt;/i&gt;&lt;/span&gt;" style="sketch=0;outlineConnect=0;fontColor=#232F3E;gradientColor=none;fillColor=#FF3399;strokeColor=none;dashed=0;verticalLabelPosition=bottom;verticalAlign=top;align=center;html=1;fontSize=12;fontStyle=0;aspect=fixed;pointerEvents=1;shape=mxgraph.azure.notification_topic;" vertex="1" parent="Lj7cZKcXqTJOpleY3WrA-1">
          <mxGeometry x="477" y="120" width="91.76" height="80" as="geometry" />
        </mxCell>
        <mxCell id="Lj7cZKcXqTJOpleY3WrA-15" value="" style="sketch=0;outlineConnect=0;fontColor=#232F3E;gradientColor=none;fillColor=#FF3399;strokeColor=none;dashed=0;verticalLabelPosition=bottom;verticalAlign=top;align=center;html=1;fontSize=12;fontStyle=0;aspect=fixed;pointerEvents=1;shape=mxgraph.azure.notification_topic;" vertex="1" parent="Lj7cZKcXqTJOpleY3WrA-1">
          <mxGeometry x="477" y="1000" width="91.76" height="80" as="geometry" />
        </mxCell>
        <mxCell id="Lj7cZKcXqTJOpleY3WrA-16" value="" style="sketch=0;outlineConnect=0;fontColor=#232F3E;gradientColor=none;fillColor=#FF3399;strokeColor=none;dashed=0;verticalLabelPosition=bottom;verticalAlign=top;align=center;html=1;fontSize=12;fontStyle=0;aspect=fixed;pointerEvents=1;shape=mxgraph.azure.notification_topic;opacity=20;" vertex="1" parent="Lj7cZKcXqTJOpleY3WrA-1">
          <mxGeometry x="477" y="360" width="91.76" height="80" as="geometry" />
        </mxCell>
        <mxCell id="Lj7cZKcXqTJOpleY3WrA-17" value="" style="endArrow=none;dashed=1;html=1;dashPattern=1 3;strokeWidth=3;rounded=0;sketch=1;curveFitting=1;jiggle=2;strokeColor=#FFFFFF;" edge="1" parent="Lj7cZKcXqTJOpleY3WrA-1">
          <mxGeometry width="50" height="50" relative="1" as="geometry">
            <mxPoint x="517" y="910" as="sourcePoint" />
            <mxPoint x="517" y="520" as="targetPoint" />
          </mxGeometry>
        </mxCell>
        <mxCell id="Lj7cZKcXqTJOpleY3WrA-18" style="edgeStyle=orthogonalEdgeStyle;rounded=0;orthogonalLoop=1;jettySize=auto;html=1;entryX=0.5;entryY=0;entryDx=0;entryDy=0;entryPerimeter=0;strokeWidth=3;sketch=1;curveFitting=1;jiggle=2;strokeColor=#FFFFFF;" edge="1" parent="Lj7cZKcXqTJOpleY3WrA-1" source="Lj7cZKcXqTJOpleY3WrA-14" target="Lj7cZKcXqTJOpleY3WrA-8">
          <mxGeometry relative="1" as="geometry" />
        </mxCell>
        <mxCell id="Lj7cZKcXqTJOpleY3WrA-19" value="&lt;font style=&quot;font-size: 26px;&quot;&gt;forward&amp;nbsp;&lt;br&gt;&lt;/font&gt;&lt;div&gt;&lt;font style=&quot;font-size: 26px;&quot;&gt;&lt;b&gt;commit metadata&lt;/b&gt;&lt;/font&gt;&lt;/div&gt;&lt;div&gt;&lt;font style=&quot;font-size: 26px;&quot;&gt;to&amp;nbsp;&lt;/font&gt;the subscriber&lt;/div&gt;" style="edgeLabel;html=1;align=center;verticalAlign=middle;resizable=0;points=[];fontSize=26;labelBackgroundColor=#1E2129;fontColor=#FFFFFF;" vertex="1" connectable="0" parent="Lj7cZKcXqTJOpleY3WrA-18">
          <mxGeometry x="0.4128" y="3" relative="1" as="geometry">
            <mxPoint y="1" as="offset" />
          </mxGeometry>
        </mxCell>
        <mxCell id="Lj7cZKcXqTJOpleY3WrA-20" style="edgeStyle=orthogonalEdgeStyle;rounded=0;orthogonalLoop=1;jettySize=auto;html=1;entryX=0;entryY=0.5;entryDx=0;entryDy=0;entryPerimeter=0;strokeWidth=3;sketch=1;curveFitting=1;jiggle=2;strokeColor=#FFFFFF;" edge="1" parent="Lj7cZKcXqTJOpleY3WrA-1" source="Lj7cZKcXqTJOpleY3WrA-16" target="Lj7cZKcXqTJOpleY3WrA-8">
          <mxGeometry relative="1" as="geometry">
            <Array as="points">
              <mxPoint x="680" y="400" />
              <mxPoint x="680" y="600" />
            </Array>
          </mxGeometry>
        </mxCell>
        <mxCell id="Lj7cZKcXqTJOpleY3WrA-21" style="edgeStyle=orthogonalEdgeStyle;rounded=0;orthogonalLoop=1;jettySize=auto;html=1;strokeWidth=3;sketch=1;curveFitting=1;jiggle=2;strokeColor=#FFFFFF;" edge="1" parent="Lj7cZKcXqTJOpleY3WrA-1" source="Lj7cZKcXqTJOpleY3WrA-15">
          <mxGeometry relative="1" as="geometry">
            <mxPoint x="960" y="730" as="targetPoint" />
          </mxGeometry>
        </mxCell>
        <mxCell id="Lj7cZKcXqTJOpleY3WrA-22" value="" style="endArrow=classic;html=1;rounded=0;entryX=0;entryY=0.5;entryDx=0;entryDy=0;entryPerimeter=0;dashed=1;dashPattern=1 4;strokeWidth=3;sketch=1;curveFitting=1;jiggle=2;strokeColor=#FFFFFF;" edge="1" parent="Lj7cZKcXqTJOpleY3WrA-1" target="Lj7cZKcXqTJOpleY3WrA-8">
          <mxGeometry width="50" height="50" relative="1" as="geometry">
            <mxPoint x="520" y="800" as="sourcePoint" />
            <mxPoint x="930" y="720" as="targetPoint" />
            <Array as="points">
              <mxPoint x="680" y="800" />
              <mxPoint x="680" y="600" />
            </Array>
          </mxGeometry>
        </mxCell>
        <mxCell id="Lj7cZKcXqTJOpleY3WrA-23" value="" style="shape=image;verticalLabelPosition=bottom;labelBackgroundColor=default;verticalAlign=top;aspect=fixed;imageAspect=0;image=https://raw.githubusercontent.com/caronc/apprise/master/apprise/assets/themes/default/apprise-logo.png;" vertex="1" parent="Lj7cZKcXqTJOpleY3WrA-1">
          <mxGeometry x="1200" y="460" width="316.88" height="130" as="geometry" />
        </mxCell>
      </root>
    </mxGraphModel>
  </diagram>
</mxfile>
